<svg id="visual" viewBox="0 0 960 540" width="960" height="540" xmlns="http://www.w3.org/2000/svg" xmlns:xlink="http://www.w3.org/1999/xlink" version="1.1"><path d="M0 23L7.3 20.2C14.7 17.3 29.3 11.7 43.8 11.7C58.3 11.7 72.7 17.3 87.2 21.8C101.7 26.3 116.3 29.7 131 29.7C145.7 29.7 160.3 26.3 174.8 27.3C189.3 28.3 203.7 33.7 218.2 32.7C232.7 31.7 247.3 24.3 261.8 23.3C276.3 22.3 290.7 27.7 305.2 30.3C319.7 33 334.3 33 349 30.3C363.7 27.7 378.3 22.3 392.8 19.7C407.3 17 421.7 17 436.2 18C450.7 19 465.3 21 480 22C494.7 23 509.3 23 523.8 21.2C538.3 19.3 552.7 15.7 567.2 16.5C581.7 17.3 596.3 22.7 611 24.5C625.7 26.3 640.3 24.7 654.8 22C669.3 19.3 683.7 15.7 698.2 17.3C712.7 19 727.3 26 741.8 29.5C756.3 33 770.7 33 785.2 32.2C799.7 31.3 814.3 29.7 829 28C843.7 26.3 858.3 24.7 872.8 22C887.3 19.3 901.7 15.7 916.2 15.7C930.7 15.7 945.3 19.3 952.7 21.2L960 23L960 0L952.7 0C945.3 0 930.7 0 916.2 0C901.7 0 887.3 0 872.8 0C858.3 0 843.7 0 829 0C814.3 0 799.7 0 785.2 0C770.7 0 756.3 0 741.8 0C727.3 0 712.7 0 698.2 0C683.7 0 669.3 0 654.8 0C640.3 0 625.7 0 611 0C596.3 0 581.7 0 567.2 0C552.7 0 538.3 0 523.8 0C509.3 0 494.7 0 480 0C465.3 0 450.7 0 436.2 0C421.7 0 407.3 0 392.8 0C378.3 0 363.7 0 349 0C334.3 0 319.7 0 305.2 0C290.7 0 276.3 0 261.8 0C247.3 0 232.7 0 218.2 0C203.7 0 189.3 0 174.8 0C160.3 0 145.7 0 131 0C116.3 0 101.7 0 87.2 0C72.7 0 58.3 0 43.8 0C29.3 0 14.7 0 7.3 0L0 0Z" fill="#299eff"></path><path d="M0 44L7.3 39.5C14.7 35 29.3 26 43.8 27.8C58.3 29.7 72.7 42.3 87.2 46.8C101.7 51.3 116.3 47.7 131 49.5C145.7 51.3 160.3 58.7 174.8 59.7C189.3 60.7 203.7 55.3 218.2 49C232.7 42.7 247.3 35.3 261.8 38.8C276.3 42.3 290.7 56.7 305.2 58.5C319.7 60.3 334.3 49.7 349 43.3C363.7 37 378.3 35 392.8 40.3C407.3 45.7 421.7 58.3 436.2 63.8C450.7 69.3 465.3 67.7 480 67.7C494.7 67.7 509.3 69.3 523.8 64.8C538.3 60.3 552.7 49.7 567.2 46.2C581.7 42.7 596.3 46.3 611 49C625.7 51.7 640.3 53.3 654.8 49.7C669.3 46 683.7 37 698.2 39.7C712.7 42.3 727.3 56.7 741.8 59.3C756.3 62 770.7 53 785.2 54C799.7 55 814.3 66 829 64.2C843.7 62.3 858.3 47.7 872.8 37.7C887.3 27.7 901.7 22.3 916.2 23.3C930.7 24.3 945.3 31.7 952.7 35.3L960 39L960 21L952.7 19.2C945.3 17.3 930.7 13.7 916.2 13.7C901.7 13.7 887.3 17.3 872.8 20C858.3 22.7 843.7 24.3 829 26C814.3 27.7 799.7 29.3 785.2 30.2C770.7 31 756.3 31 741.8 27.5C727.3 24 712.7 17 698.2 15.3C683.7 13.7 669.3 17.3 654.8 20C640.3 22.7 625.7 24.3 611 22.5C596.3 20.7 581.7 15.3 567.2 14.5C552.7 13.7 538.3 17.3 523.8 19.2C509.3 21 494.7 21 480 20C465.3 19 450.7 17 436.2 16C421.7 15 407.3 15 392.8 17.7C378.3 20.3 363.7 25.7 349 28.3C334.3 31 319.7 31 305.2 28.3C290.7 25.7 276.3 20.3 261.8 21.3C247.3 22.3 232.7 29.7 218.2 30.7C203.7 31.7 189.3 26.3 174.8 25.3C160.3 24.3 145.7 27.7 131 27.7C116.3 27.7 101.7 24.3 87.2 19.8C72.7 15.3 58.3 9.7 43.8 9.7C29.3 9.7 14.7 15.3 7.3 18.2L0 21Z" fill="#2098ff"></path><path d="M0 131L7.3 130C14.7 129 29.3 127 43.8 127.8C58.3 128.7 72.7 132.3 87.2 144C101.7 155.7 116.3 175.3 131 184.3C145.7 193.3 160.3 191.7 174.8 180C189.3 168.3 203.7 146.7 218.2 137.7C232.7 128.7 247.3 132.3 261.8 142.3C276.3 152.3 290.7 168.7 305.2 162.3C319.7 156 334.3 127 349 113.5C363.7 100 378.3 102 392.8 114.7C407.3 127.3 421.7 150.7 436.2 174C450.7 197.3 465.3 220.7 480 209.8C494.7 199 509.3 154 523.8 127C538.3 100 552.7 91 567.2 96.3C581.7 101.7 596.3 121.3 611 147.5C625.7 173.7 640.3 206.3 654.8 215.3C669.3 224.3 683.7 209.7 698.2 212.3C712.7 215 727.3 235 741.8 224.3C756.3 213.7 770.7 172.3 785.2 170.5C799.7 168.7 814.3 206.3 829 197.3C843.7 188.3 858.3 132.7 872.8 113.8C887.3 95 901.7 113 916.2 130C930.7 147 945.3 163 952.7 171L960 179L960 37L952.7 33.3C945.3 29.7 930.7 22.3 916.2 21.3C901.7 20.3 887.3 25.7 872.8 35.7C858.3 45.7 843.7 60.3 829 62.2C814.3 64 799.7 53 785.2 52C770.7 51 756.3 60 741.8 57.3C727.3 54.7 712.7 40.3 698.2 37.7C683.7 35 669.3 44 654.8 47.7C640.3 51.3 625.7 49.7 611 47C596.3 44.3 581.7 40.7 567.2 44.2C552.7 47.7 538.3 58.3 523.8 62.8C509.3 67.3 494.7 65.7 480 65.7C465.3 65.7 450.7 67.3 436.2 61.8C421.7 56.3 407.3 43.7 392.8 38.3C378.3 33 363.7 35 349 41.3C334.3 47.7 319.7 58.3 305.2 56.5C290.7 54.7 276.3 40.3 261.8 36.8C247.3 33.3 232.7 40.7 218.2 47C203.7 53.3 189.3 58.7 174.8 57.7C160.3 56.7 145.7 49.3 131 47.5C116.3 45.7 101.7 49.3 87.2 44.8C72.7 40.3 58.3 27.7 43.8 25.8C29.3 24 14.7 33 7.3 37.5L0 42Z" fill="#1a92ff"></path><path d="M0 190L7.3 190.8C14.7 191.7 29.3 193.3 43.8 195.2C58.3 197 72.7 199 87.2 211.7C101.7 224.3 116.3 247.7 131 256.7C145.7 265.7 160.3 260.3 174.8 245C189.3 229.7 203.7 204.3 218.2 192.7C232.7 181 247.3 183 261.8 188.5C276.3 194 290.7 203 305.2 197.5C319.7 192 334.3 172 349 161.2C363.7 150.3 378.3 148.7 392.8 155.8C407.3 163 421.7 179 436.2 198.8C450.7 218.7 465.3 242.3 480 240.7C494.7 239 509.3 212 523.8 193C538.3 174 552.7 163 567.2 172C581.7 181 596.3 210 611 226.2C625.7 242.3 640.3 245.7 654.8 251C669.3 256.3 683.7 263.7 698.2 268.2C712.7 272.7 727.3 274.3 741.8 256.3C756.3 238.3 770.7 200.7 785.2 205.2C799.7 209.7 814.3 256.3 829 255.5C843.7 254.7 858.3 206.3 872.8 182.2C887.3 158 901.7 158 916.2 167C930.7 176 945.3 194 952.7 203L960 212L960 177L952.7 169C945.3 161 930.7 145 916.2 128C901.7 111 887.3 93 872.8 111.8C858.3 130.7 843.7 186.3 829 195.3C814.3 204.3 799.7 166.7 785.2 168.5C770.7 170.3 756.3 211.7 741.8 222.3C727.3 233 712.7 213 698.2 210.3C683.7 207.7 669.3 222.3 654.8 213.3C640.3 204.3 625.7 171.7 611 145.5C596.3 119.3 581.7 99.7 567.2 94.3C552.7 89 538.3 98 523.8 125C509.3 152 494.7 197 480 207.8C465.3 218.7 450.7 195.3 436.2 172C421.7 148.7 407.3 125.3 392.8 112.7C378.3 100 363.7 98 349 111.5C334.3 125 319.7 154 305.2 160.3C290.7 166.7 276.3 150.3 261.8 140.3C247.3 130.3 232.7 126.7 218.2 135.7C203.7 144.7 189.3 166.3 174.8 178C160.3 189.7 145.7 191.3 131 182.3C116.3 173.3 101.7 153.7 87.2 142C72.7 130.3 58.3 126.7 43.8 125.8C29.3 125 14.7 127 7.3 128L0 129Z" fill="#198cff"></path><path d="M0 233L7.3 234C14.7 235 29.3 237 43.8 236.2C58.3 235.3 72.7 231.7 87.2 239.7C101.7 247.7 116.3 267.3 131 276.3C145.7 285.3 160.3 283.7 174.8 272C189.3 260.3 203.7 238.7 218.2 227.8C232.7 217 247.3 217 261.8 221.5C276.3 226 290.7 235 305.2 228.7C319.7 222.3 334.3 200.7 349 192.5C363.7 184.3 378.3 189.7 392.8 196.8C407.3 204 421.7 213 436.2 229.3C450.7 245.7 465.3 269.3 480 266.7C494.7 264 509.3 235 523.8 216C538.3 197 552.7 188 567.2 197C581.7 206 596.3 233 611 247.5C625.7 262 640.3 264 654.8 268.5C669.3 273 683.7 280 698.2 286.2C712.7 292.3 727.3 297.7 741.8 277.8C756.3 258 770.7 213 785.2 216.7C799.7 220.3 814.3 272.7 829 274.5C843.7 276.3 858.3 227.7 872.8 202.5C887.3 177.3 901.7 175.7 916.2 183.8C930.7 192 945.3 210 952.7 219L960 228L960 210L952.7 201C945.3 192 930.7 174 916.2 165C901.7 156 887.3 156 872.8 180.2C858.3 204.3 843.7 252.7 829 253.5C814.3 254.3 799.7 207.7 785.2 203.2C770.7 198.7 756.3 236.3 741.8 254.3C727.3 272.3 712.7 270.7 698.2 266.2C683.7 261.7 669.3 254.3 654.8 249C640.3 243.7 625.7 240.3 611 224.2C596.3 208 581.7 179 567.2 170C552.7 161 538.3 172 523.8 191C509.3 210 494.7 237 480 238.7C465.3 240.3 450.7 216.7 436.2 196.8C421.7 177 407.3 161 392.8 153.8C378.3 146.7 363.7 148.3 349 159.2C334.3 170 319.7 190 305.2 195.5C290.7 201 276.3 192 261.8 186.5C247.3 181 232.7 179 218.2 190.7C203.7 202.3 189.3 227.7 174.8 243C160.3 258.3 145.7 263.7 131 254.7C116.3 245.7 101.7 222.3 87.2 209.7C72.7 197 58.3 195 43.8 193.2C29.3 191.3 14.7 189.7 7.3 188.8L0 188Z" fill="#1e85ff"></path><path d="M0 255L7.3 253.2C14.7 251.3 29.3 247.7 43.8 245.8C58.3 244 72.7 244 87.2 253.8C101.7 263.7 116.3 283.3 131 293.2C145.7 303 160.3 303 174.8 291.3C189.3 279.7 203.7 256.3 218.2 246.5C232.7 236.7 247.3 240.3 261.8 243C276.3 245.7 290.7 247.3 305.2 238.3C319.7 229.3 334.3 209.7 349 204.3C363.7 199 378.3 208 392.8 215.2C407.3 222.3 421.7 227.7 436.2 242C450.7 256.3 465.3 279.7 480 278.8C494.7 278 509.3 253 523.8 234.2C538.3 215.3 552.7 202.7 567.2 209C581.7 215.3 596.3 240.7 611 256C625.7 271.3 640.3 276.7 654.8 285.7C669.3 294.7 683.7 307.3 698.2 315.3C712.7 323.3 727.3 326.7 741.8 306.8C756.3 287 770.7 244 785.2 245C799.7 246 814.3 291 829 292.8C843.7 294.7 858.3 253.3 872.8 231.7C887.3 210 901.7 208 916.2 215.2C930.7 222.3 945.3 238.7 952.7 246.8L960 255L960 226L952.7 217C945.3 208 930.7 190 916.2 181.8C901.7 173.7 887.3 175.3 872.8 200.5C858.3 225.7 843.7 274.3 829 272.5C814.3 270.7 799.7 218.3 785.2 214.7C770.7 211 756.3 256 741.8 275.8C727.3 295.7 712.7 290.3 698.2 284.2C683.7 278 669.3 271 654.8 266.5C640.3 262 625.7 260 611 245.5C596.3 231 581.7 204 567.2 195C552.7 186 538.3 195 523.8 214C509.3 233 494.7 262 480 264.7C465.3 267.3 450.7 243.7 436.2 227.3C421.7 211 407.3 202 392.8 194.8C378.3 187.7 363.7 182.3 349 190.5C334.3 198.7 319.7 220.3 305.2 226.7C290.7 233 276.3 224 261.8 219.5C247.3 215 232.7 215 218.2 225.8C203.7 236.7 189.3 258.3 174.8 270C160.3 281.7 145.7 283.3 131 274.3C116.3 265.3 101.7 245.7 87.2 237.7C72.7 229.7 58.3 233.3 43.8 234.2C29.3 235 14.7 233 7.3 232L0 231Z" fill="#267fff"></path><path d="M0 260L7.3 260C14.7 260 29.3 260 43.8 261.8C58.3 263.7 72.7 267.3 87.2 280.8C101.7 294.3 116.3 317.7 131 328.5C145.7 339.3 160.3 337.7 174.8 323.3C189.3 309 203.7 282 218.2 269.3C232.7 256.7 247.3 258.3 261.8 261C276.3 263.7 290.7 267.3 305.2 260.2C319.7 253 334.3 235 349 230.5C363.7 226 378.3 235 392.8 238.7C407.3 242.3 421.7 240.7 436.2 251.5C450.7 262.3 465.3 285.7 480 284.7C494.7 283.7 509.3 258.3 523.8 241.2C538.3 224 552.7 215 567.2 226.7C581.7 238.3 596.3 270.7 611 288.7C625.7 306.7 640.3 310.3 654.8 318.5C669.3 326.7 683.7 339.3 698.2 347.5C712.7 355.7 727.3 359.3 741.8 339.5C756.3 319.7 770.7 276.3 785.2 276.3C799.7 276.3 814.3 319.7 829 318.8C843.7 318 858.3 273 872.8 251.3C887.3 229.7 901.7 231.3 916.2 242.2C930.7 253 945.3 273 952.7 283L960 293L960 253L952.7 244.8C945.3 236.7 930.7 220.3 916.2 213.2C901.7 206 887.3 208 872.8 229.7C858.3 251.3 843.7 292.7 829 290.8C814.3 289 799.7 244 785.2 243C770.7 242 756.3 285 741.8 304.8C727.3 324.7 712.7 321.3 698.2 313.3C683.7 305.3 669.3 292.7 654.8 283.7C640.3 274.7 625.7 269.3 611 254C596.3 238.7 581.7 213.3 567.2 207C552.7 200.7 538.3 213.3 523.8 232.2C509.3 251 494.7 276 480 276.8C465.3 277.7 450.7 254.3 436.2 240C421.7 225.7 407.3 220.3 392.8 213.2C378.3 206 363.7 197 349 202.3C334.3 207.7 319.7 227.3 305.2 236.3C290.7 245.3 276.3 243.7 261.8 241C247.3 238.3 232.7 234.7 218.2 244.5C203.7 254.3 189.3 277.7 174.8 289.3C160.3 301 145.7 301 131 291.2C116.3 281.3 101.7 261.7 87.2 251.8C72.7 242 58.3 242 43.8 243.8C29.3 245.7 14.7 249.3 7.3 251.2L0 253Z" fill="#3077ff"></path><path d="M0 325L7.3 317.8C14.7 310.7 29.3 296.3 43.8 296.3C58.3 296.3 72.7 310.7 87.2 326.8C101.7 343 116.3 361 131 373.7C145.7 386.3 160.3 393.7 174.8 383.8C189.3 374 203.7 347 218.2 325.3C232.7 303.7 247.3 287.3 261.8 285.5C276.3 283.7 290.7 296.3 305.2 296.3C319.7 296.3 334.3 283.7 349 274.7C363.7 265.7 378.3 260.3 392.8 259.5C407.3 258.7 421.7 262.3 436.2 276.7C450.7 291 465.3 316 480 312.3C494.7 308.7 509.3 276.3 523.8 260.2C538.3 244 552.7 244 567.2 256.7C581.7 269.3 596.3 294.7 611 314.5C625.7 334.3 640.3 348.7 654.8 364.8C669.3 381 683.7 399 698.2 406.2C712.7 413.3 727.3 409.7 741.8 383.5C756.3 357.3 770.7 308.7 785.2 304.2C799.7 299.7 814.3 339.3 829 336.7C843.7 334 858.3 289 872.8 272.8C887.3 256.7 901.7 269.3 916.2 282.8C930.7 296.3 945.3 310.7 952.7 317.8L960 325L960 291L952.7 281C945.3 271 930.7 251 916.2 240.2C901.7 229.3 887.3 227.7 872.8 249.3C858.3 271 843.7 316 829 316.8C814.3 317.7 799.7 274.3 785.2 274.3C770.7 274.3 756.3 317.7 741.8 337.5C727.3 357.3 712.7 353.7 698.2 345.5C683.7 337.3 669.3 324.7 654.8 316.5C640.3 308.3 625.7 304.7 611 286.7C596.3 268.7 581.7 236.3 567.2 224.7C552.7 213 538.3 222 523.8 239.2C509.3 256.3 494.7 281.7 480 282.7C465.3 283.7 450.7 260.3 436.2 249.5C421.7 238.7 407.3 240.3 392.8 236.7C378.3 233 363.7 224 349 228.5C334.3 233 319.7 251 305.2 258.2C290.7 265.3 276.3 261.7 261.8 259C247.3 256.3 232.7 254.7 218.2 267.3C203.7 280 189.3 307 174.8 321.3C160.3 335.7 145.7 337.3 131 326.5C116.3 315.7 101.7 292.3 87.2 278.8C72.7 265.3 58.3 261.7 43.8 259.8C29.3 258 14.7 258 7.3 258L0 258Z" fill="#3d70ff"></path><path d="M0 379L7.3 370.8C14.7 362.7 29.3 346.3 43.8 343.7C58.3 341 72.7 352 87.2 363.8C101.7 375.7 116.3 388.3 131 398.2C145.7 408 160.3 415 174.8 408.7C189.3 402.3 203.7 382.7 218.2 367.3C232.7 352 247.3 341 261.8 333.8C276.3 326.7 290.7 323.3 305.2 318.8C319.7 314.3 334.3 308.7 349 305.8C363.7 303 378.3 303 392.8 307.5C407.3 312 421.7 321 436.2 335.5C450.7 350 465.3 370 480 362.8C494.7 355.7 509.3 321.3 523.8 303.3C538.3 285.3 552.7 283.7 567.2 293.7C581.7 303.7 596.3 325.3 611 346.8C625.7 368.3 640.3 389.7 654.8 412.2C669.3 434.7 683.7 458.3 698.2 459.3C712.7 460.3 727.3 438.7 741.8 406.2C756.3 373.7 770.7 330.3 785.2 330.3C799.7 330.3 814.3 373.7 829 372.8C843.7 372 858.3 327 872.8 309.8C887.3 292.7 901.7 303.3 916.2 316.8C930.7 330.3 945.3 346.7 952.7 354.8L960 363L960 323L952.7 315.8C945.3 308.7 930.7 294.3 916.2 280.8C901.7 267.3 887.3 254.7 872.8 270.8C858.3 287 843.7 332 829 334.7C814.3 337.3 799.7 297.7 785.2 302.2C770.7 306.7 756.3 355.3 741.8 381.5C727.3 407.7 712.7 411.3 698.2 404.2C683.7 397 669.3 379 654.8 362.8C640.3 346.7 625.7 332.3 611 312.5C596.3 292.7 581.7 267.3 567.2 254.7C552.7 242 538.3 242 523.8 258.2C509.3 274.3 494.7 306.7 480 310.3C465.3 314 450.7 289 436.2 274.7C421.7 260.3 407.3 256.7 392.8 257.5C378.3 258.3 363.7 263.7 349 272.7C334.3 281.7 319.7 294.3 305.2 294.3C290.7 294.3 276.3 281.7 261.8 283.5C247.3 285.3 232.7 301.7 218.2 323.3C203.7 345 189.3 372 174.8 381.8C160.3 391.7 145.7 384.3 131 371.7C116.3 359 101.7 341 87.2 324.8C72.7 308.7 58.3 294.3 43.8 294.3C29.3 294.3 14.7 308.7 7.3 315.8L0 323Z" fill="#4b67ff"></path><path d="M0 422L7.3 425.7C14.7 429.3 29.3 436.7 43.8 446.7C58.3 456.7 72.7 469.3 87.2 473.8C101.7 478.3 116.3 474.7 131 468.3C145.7 462 160.3 453 174.8 454.8C189.3 456.7 203.7 469.3 218.2 466.7C232.7 464 247.3 446 261.8 442.3C276.3 438.7 290.7 449.3 305.2 448.3C319.7 447.3 334.3 434.7 349 426.5C363.7 418.3 378.3 414.7 392.8 413.8C407.3 413 421.7 415 436.2 416.8C450.7 418.7 465.3 420.3 480 421.2C494.7 422 509.3 422 523.8 426.5C538.3 431 552.7 440 567.2 451.7C581.7 463.3 596.3 477.7 611 480.3C625.7 483 640.3 474 654.8 476.8C669.3 479.7 683.7 494.3 698.2 490.8C712.7 487.3 727.3 465.7 741.8 457.5C756.3 449.3 770.7 454.7 785.2 464.5C799.7 474.3 814.3 488.7 829 491.3C843.7 494 858.3 485 872.8 480.5C887.3 476 901.7 476 916.2 468.8C930.7 461.7 945.3 447.3 952.7 440.2L960 433L960 361L952.7 352.8C945.3 344.7 930.7 328.3 916.2 314.8C901.7 301.3 887.3 290.7 872.8 307.8C858.3 325 843.7 370 829 370.8C814.3 371.7 799.7 328.3 785.2 328.3C770.7 328.3 756.3 371.7 741.8 404.2C727.3 436.7 712.7 458.3 698.2 457.3C683.7 456.3 669.3 432.7 654.8 410.2C640.3 387.7 625.7 366.3 611 344.8C596.3 323.3 581.7 301.7 567.2 291.7C552.7 281.7 538.3 283.3 523.8 301.3C509.3 319.3 494.7 353.7 480 360.8C465.3 368 450.7 348 436.2 333.5C421.7 319 407.3 310 392.8 305.5C378.3 301 363.7 301 349 303.8C334.3 306.7 319.7 312.3 305.2 316.8C290.7 321.3 276.3 324.7 261.8 331.8C247.3 339 232.7 350 218.2 365.3C203.7 380.7 189.3 400.3 174.8 406.7C160.3 413 145.7 406 131 396.2C116.3 386.3 101.7 373.7 87.2 361.8C72.7 350 58.3 339 43.8 341.7C29.3 344.3 14.7 360.7 7.3 368.8L0 377Z" fill="#595dff"></path><path d="M0 503L7.3 501.2C14.7 499.3 29.3 495.7 43.8 499.3C58.3 503 72.7 514 87.2 515.8C101.7 517.7 116.3 510.3 131 510.3C145.7 510.3 160.3 517.7 174.8 523.2C189.3 528.7 203.7 532.3 218.2 528.7C232.7 525 247.3 514 261.8 508.5C276.3 503 290.7 503 305.2 503C319.7 503 334.3 503 349 502.2C363.7 501.3 378.3 499.7 392.8 505.2C407.3 510.7 421.7 523.3 436.2 523.3C450.7 523.3 465.3 510.7 480 508.8C494.7 507 509.3 516 523.8 521.3C538.3 526.7 552.7 528.3 567.2 529.2C581.7 530 596.3 530 611 530C625.7 530 640.3 530 654.8 530C669.3 530 683.7 530 698.2 526.5C712.7 523 727.3 516 741.8 515.2C756.3 514.3 770.7 519.7 785.2 522.3C799.7 525 814.3 525 829 525.8C843.7 526.7 858.3 528.3 872.8 526.5C887.3 524.7 901.7 519.3 916.2 518.5C930.7 517.7 945.3 521.3 952.7 523.2L960 525L960 431L952.7 438.2C945.3 445.3 930.7 459.7 916.2 466.8C901.7 474 887.3 474 872.8 478.5C858.3 483 843.7 492 829 489.3C814.3 486.7 799.7 472.3 785.2 462.5C770.7 452.7 756.3 447.3 741.8 455.5C727.3 463.7 712.7 485.3 698.2 488.8C683.7 492.3 669.3 477.7 654.8 474.8C640.3 472 625.7 481 611 478.3C596.3 475.7 581.7 461.3 567.2 449.7C552.7 438 538.3 429 523.8 424.5C509.3 420 494.7 420 480 419.2C465.3 418.3 450.7 416.7 436.2 414.8C421.7 413 407.3 411 392.8 411.8C378.3 412.7 363.7 416.3 349 424.5C334.3 432.7 319.7 445.3 305.2 446.3C290.7 447.3 276.3 436.7 261.8 440.3C247.3 444 232.7 462 218.2 464.7C203.7 467.3 189.3 454.7 174.8 452.8C160.3 451 145.7 460 131 466.3C116.3 472.7 101.7 476.3 87.2 471.8C72.7 467.3 58.3 454.7 43.8 444.7C29.3 434.7 14.7 427.3 7.3 423.7L0 420Z" fill="#6852ff"></path><path d="M0 541L7.3 541C14.7 541 29.3 541 43.8 541C58.3 541 72.7 541 87.2 541C101.7 541 116.3 541 131 541C145.7 541 160.3 541 174.8 541C189.3 541 203.7 541 218.2 541C232.7 541 247.3 541 261.8 541C276.3 541 290.7 541 305.2 541C319.7 541 334.3 541 349 541C363.7 541 378.3 541 392.8 541C407.3 541 421.7 541 436.2 541C450.7 541 465.3 541 480 541C494.7 541 509.3 541 523.8 541C538.3 541 552.7 541 567.2 541C581.7 541 596.3 541 611 541C625.7 541 640.3 541 654.8 541C669.3 541 683.7 541 698.2 541C712.7 541 727.3 541 741.8 541C756.3 541 770.7 541 785.2 541C799.7 541 814.3 541 829 541C843.7 541 858.3 541 872.8 541C887.3 541 901.7 541 916.2 541C930.7 541 945.3 541 952.7 541L960 541L960 523L952.7 521.2C945.3 519.3 930.7 515.7 916.2 516.5C901.7 517.3 887.3 522.7 872.8 524.5C858.3 526.3 843.7 524.7 829 523.8C814.3 523 799.7 523 785.2 520.3C770.7 517.7 756.3 512.3 741.8 513.2C727.3 514 712.7 521 698.2 524.5C683.7 528 669.3 528 654.8 528C640.3 528 625.7 528 611 528C596.3 528 581.7 528 567.2 527.2C552.7 526.3 538.3 524.7 523.8 519.3C509.3 514 494.7 505 480 506.8C465.3 508.7 450.7 521.3 436.2 521.3C421.7 521.3 407.3 508.7 392.8 503.2C378.3 497.7 363.7 499.3 349 500.2C334.3 501 319.7 501 305.2 501C290.7 501 276.3 501 261.8 506.5C247.3 512 232.7 523 218.2 526.7C203.7 530.3 189.3 526.7 174.8 521.2C160.3 515.7 145.7 508.3 131 508.3C116.3 508.3 101.7 515.7 87.2 513.8C72.7 512 58.3 501 43.8 497.3C29.3 493.7 14.7 497.3 7.3 499.2L0 501Z" fill="#7744ff"></path></svg>