<svg id="visual" viewBox="0 0 960 540" width="960" height="540" xmlns="http://www.w3.org/2000/svg" xmlns:xlink="http://www.w3.org/1999/xlink" version="1.1"><path d="M0 114L7.3 114C14.7 114 29.3 114 43.8 114C58.3 114 72.7 114 87.2 115C101.7 116 116.3 118 131 118C145.7 118 160.3 116 174.8 116C189.3 116 203.7 118 218.2 116.3C232.7 114.7 247.3 109.3 261.8 106.7C276.3 104 290.7 104 305.2 104C319.7 104 334.3 104 349 104C363.7 104 378.3 104 392.8 104C407.3 104 421.7 104 436.2 106.7C450.7 109.3 465.3 114.7 480 115.5C494.7 116.3 509.3 112.7 523.8 110C538.3 107.3 552.7 105.7 567.2 104.8C581.7 104 596.3 104 611 104C625.7 104 640.3 104 654.8 105.7C669.3 107.3 683.7 110.7 698.2 110.7C712.7 110.7 727.3 107.3 741.8 108.3C756.3 109.3 770.7 114.7 785.2 116.3C799.7 118 814.3 116 829 115C843.7 114 858.3 114 872.8 115C887.3 116 901.7 118 916.2 119C930.7 120 945.3 120 952.7 120L960 120L960 0L952.7 0C945.3 0 930.7 0 916.2 0C901.7 0 887.3 0 872.8 0C858.3 0 843.7 0 829 0C814.3 0 799.7 0 785.2 0C770.7 0 756.3 0 741.8 0C727.3 0 712.7 0 698.2 0C683.7 0 669.3 0 654.8 0C640.3 0 625.7 0 611 0C596.3 0 581.7 0 567.2 0C552.7 0 538.3 0 523.8 0C509.3 0 494.7 0 480 0C465.3 0 450.7 0 436.2 0C421.7 0 407.3 0 392.8 0C378.3 0 363.7 0 349 0C334.3 0 319.7 0 305.2 0C290.7 0 276.3 0 261.8 0C247.3 0 232.7 0 218.2 0C203.7 0 189.3 0 174.8 0C160.3 0 145.7 0 131 0C116.3 0 101.7 0 87.2 0C72.7 0 58.3 0 43.8 0C29.3 0 14.7 0 7.3 0L0 0Z" fill="#299eff"></path><path d="M0 136L7.3 136C14.7 136 29.3 136 43.8 136C58.3 136 72.7 136 87.2 136.8C101.7 137.7 116.3 139.3 131 139.3C145.7 139.3 160.3 137.7 174.8 137.7C189.3 137.7 203.7 139.3 218.2 137.5C232.7 135.7 247.3 130.3 261.8 127.7C276.3 125 290.7 125 305.2 125C319.7 125 334.3 125 349 125C363.7 125 378.3 125 392.8 125C407.3 125 421.7 125 436.2 127.7C450.7 130.3 465.3 135.7 480 136.7C494.7 137.7 509.3 134.3 523.8 131.7C538.3 129 552.7 127 567.2 126C581.7 125 596.3 125 611 125C625.7 125 640.3 125 654.8 126.8C669.3 128.7 683.7 132.3 698.2 132.3C712.7 132.3 727.3 128.7 741.8 129.5C756.3 130.3 770.7 135.7 785.2 137.5C799.7 139.3 814.3 137.7 829 136.8C843.7 136 858.3 136 872.8 136.8C887.3 137.7 901.7 139.3 916.2 140.2C930.7 141 945.3 141 952.7 141L960 141L960 118L952.7 118C945.3 118 930.7 118 916.2 117C901.7 116 887.3 114 872.8 113C858.3 112 843.7 112 829 113C814.3 114 799.7 116 785.2 114.3C770.7 112.7 756.3 107.3 741.8 106.3C727.3 105.3 712.7 108.7 698.2 108.7C683.7 108.7 669.3 105.3 654.8 103.7C640.3 102 625.7 102 611 102C596.3 102 581.7 102 567.2 102.8C552.7 103.7 538.3 105.3 523.8 108C509.3 110.7 494.7 114.3 480 113.5C465.3 112.7 450.7 107.3 436.2 104.7C421.7 102 407.3 102 392.8 102C378.3 102 363.7 102 349 102C334.3 102 319.7 102 305.2 102C290.7 102 276.3 102 261.8 104.7C247.3 107.3 232.7 112.7 218.2 114.3C203.7 116 189.3 114 174.8 114C160.3 114 145.7 116 131 116C116.3 116 101.7 114 87.2 113C72.7 112 58.3 112 43.8 112C29.3 112 14.7 112 7.3 112L0 112Z" fill="#2098ff"></path><path d="M0 195L7.3 196C14.7 197 29.3 199 43.8 200.8C58.3 202.7 72.7 204.3 87.2 204.3C101.7 204.3 116.3 202.7 131 201.8C145.7 201 160.3 201 174.8 201C189.3 201 203.7 201 218.2 198.3C232.7 195.7 247.3 190.3 261.8 187.7C276.3 185 290.7 185 305.2 185.8C319.7 186.7 334.3 188.3 349 188.3C363.7 188.3 378.3 186.7 392.8 186.7C407.3 186.7 421.7 188.3 436.2 191C450.7 193.7 465.3 197.3 480 199.2C494.7 201 509.3 201 523.8 198.3C538.3 195.7 552.7 190.3 567.2 187.7C581.7 185 596.3 185 611 185.8C625.7 186.7 640.3 188.3 654.8 191C669.3 193.7 683.7 197.3 698.2 196.5C712.7 195.7 727.3 190.3 741.8 190.3C756.3 190.3 770.7 195.7 785.2 197.3C799.7 199 814.3 197 829 196C843.7 195 858.3 195 872.8 196.8C887.3 198.7 901.7 202.3 916.2 203.3C930.7 204.3 945.3 202.7 952.7 201.8L960 201L960 139L952.7 139C945.3 139 930.7 139 916.2 138.2C901.7 137.3 887.3 135.7 872.8 134.8C858.3 134 843.7 134 829 134.8C814.3 135.7 799.7 137.3 785.2 135.5C770.7 133.7 756.3 128.3 741.8 127.5C727.3 126.7 712.7 130.3 698.2 130.3C683.7 130.3 669.3 126.7 654.8 124.8C640.3 123 625.7 123 611 123C596.3 123 581.7 123 567.2 124C552.7 125 538.3 127 523.8 129.7C509.3 132.3 494.7 135.7 480 134.7C465.3 133.7 450.7 128.3 436.2 125.7C421.7 123 407.3 123 392.8 123C378.3 123 363.7 123 349 123C334.3 123 319.7 123 305.2 123C290.7 123 276.3 123 261.8 125.7C247.3 128.3 232.7 133.7 218.2 135.5C203.7 137.3 189.3 135.7 174.8 135.7C160.3 135.7 145.7 137.3 131 137.3C116.3 137.3 101.7 135.7 87.2 134.8C72.7 134 58.3 134 43.8 134C29.3 134 14.7 134 7.3 134L0 134Z" fill="#1a92ff"></path><path d="M0 217L7.3 217.8C14.7 218.7 29.3 220.3 43.8 222.2C58.3 224 72.7 226 87.2 226C101.7 226 116.3 224 131 223C145.7 222 160.3 222 174.8 222C189.3 222 203.7 222 218.2 219.3C232.7 216.7 247.3 211.3 261.8 208.7C276.3 206 290.7 206 305.2 207C319.7 208 334.3 210 349 210C363.7 210 378.3 208 392.8 208C407.3 208 421.7 210 436.2 212.7C450.7 215.3 465.3 218.7 480 220.3C494.7 222 509.3 222 523.8 219.3C538.3 216.7 552.7 211.3 567.2 208.7C581.7 206 596.3 206 611 207C625.7 208 640.3 210 654.8 212.7C669.3 215.3 683.7 218.7 698.2 217.7C712.7 216.7 727.3 211.3 741.8 211.3C756.3 211.3 770.7 216.7 785.2 218.5C799.7 220.3 814.3 218.7 829 217.8C843.7 217 858.3 217 872.8 218.8C887.3 220.7 901.7 224.3 916.2 225.2C930.7 226 945.3 224 952.7 223L960 222L960 199L952.7 199.8C945.3 200.7 930.7 202.3 916.2 201.3C901.7 200.3 887.3 196.7 872.8 194.8C858.3 193 843.7 193 829 194C814.3 195 799.7 197 785.2 195.3C770.7 193.7 756.3 188.3 741.8 188.3C727.3 188.3 712.7 193.7 698.2 194.5C683.7 195.3 669.3 191.7 654.8 189C640.3 186.3 625.7 184.7 611 183.8C596.3 183 581.7 183 567.2 185.7C552.7 188.3 538.3 193.7 523.8 196.3C509.3 199 494.7 199 480 197.2C465.3 195.3 450.7 191.7 436.2 189C421.7 186.3 407.3 184.7 392.8 184.7C378.3 184.7 363.7 186.3 349 186.3C334.3 186.3 319.7 184.7 305.2 183.8C290.7 183 276.3 183 261.8 185.7C247.3 188.3 232.7 193.7 218.2 196.3C203.7 199 189.3 199 174.8 199C160.3 199 145.7 199 131 199.8C116.3 200.7 101.7 202.3 87.2 202.3C72.7 202.3 58.3 200.7 43.8 198.8C29.3 197 14.7 195 7.3 194L0 193Z" fill="#198cff"></path><path d="M0 266L7.3 266.8C14.7 267.7 29.3 269.3 43.8 270.2C58.3 271 72.7 271 87.2 271.8C101.7 272.7 116.3 274.3 131 274.3C145.7 274.3 160.3 272.7 174.8 272.7C189.3 272.7 203.7 274.3 218.2 271.7C232.7 269 247.3 262 261.8 258.5C276.3 255 290.7 255 305.2 255.8C319.7 256.7 334.3 258.3 349 259.2C363.7 260 378.3 260 392.8 260C407.3 260 421.7 260 436.2 262.7C450.7 265.3 465.3 270.7 480 271.7C494.7 272.7 509.3 269.3 523.8 264.8C538.3 260.3 552.7 254.7 567.2 253.7C581.7 252.7 596.3 256.3 611 257.3C625.7 258.3 640.3 256.7 654.8 258.5C669.3 260.3 683.7 265.7 698.2 264.7C712.7 263.7 727.3 256.3 741.8 256.3C756.3 256.3 770.7 263.7 785.2 266.5C799.7 269.3 814.3 267.7 829 267.7C843.7 267.7 858.3 269.3 872.8 270.2C887.3 271 901.7 271 916.2 271.8C930.7 272.7 945.3 274.3 952.7 275.2L960 276L960 220L952.7 221C945.3 222 930.7 224 916.2 223.2C901.7 222.3 887.3 218.7 872.8 216.8C858.3 215 843.7 215 829 215.8C814.3 216.7 799.7 218.3 785.2 216.5C770.7 214.7 756.3 209.3 741.8 209.3C727.3 209.3 712.7 214.7 698.2 215.7C683.7 216.7 669.3 213.3 654.8 210.7C640.3 208 625.7 206 611 205C596.3 204 581.7 204 567.2 206.7C552.7 209.3 538.3 214.7 523.8 217.3C509.3 220 494.7 220 480 218.3C465.3 216.7 450.7 213.3 436.2 210.7C421.7 208 407.3 206 392.8 206C378.3 206 363.7 208 349 208C334.3 208 319.7 206 305.2 205C290.7 204 276.3 204 261.8 206.7C247.3 209.3 232.7 214.7 218.2 217.3C203.7 220 189.3 220 174.8 220C160.3 220 145.7 220 131 221C116.3 222 101.7 224 87.2 224C72.7 224 58.3 222 43.8 220.2C29.3 218.3 14.7 216.7 7.3 215.8L0 215Z" fill="#1e85ff"></path><path d="M0 293L7.3 293.8C14.7 294.7 29.3 296.3 43.8 297.2C58.3 298 72.7 298 87.2 298.8C101.7 299.7 116.3 301.3 131 301.3C145.7 301.3 160.3 299.7 174.8 299.7C189.3 299.7 203.7 301.3 218.2 298.7C232.7 296 247.3 289 261.8 285.5C276.3 282 290.7 282 305.2 282.8C319.7 283.7 334.3 285.3 349 286.2C363.7 287 378.3 287 392.8 287C407.3 287 421.7 287 436.2 289.7C450.7 292.3 465.3 297.7 480 298.7C494.7 299.7 509.3 296.3 523.8 291.8C538.3 287.3 552.7 281.7 567.2 280.7C581.7 279.7 596.3 283.3 611 284.3C625.7 285.3 640.3 283.7 654.8 285.5C669.3 287.3 683.7 292.7 698.2 291.7C712.7 290.7 727.3 283.3 741.8 283.3C756.3 283.3 770.7 290.7 785.2 293.5C799.7 296.3 814.3 294.7 829 294.7C843.7 294.7 858.3 296.3 872.8 297.2C887.3 298 901.7 298 916.2 298.8C930.7 299.7 945.3 301.3 952.7 302.2L960 303L960 274L952.7 273.2C945.3 272.3 930.7 270.7 916.2 269.8C901.7 269 887.3 269 872.8 268.2C858.3 267.3 843.7 265.7 829 265.7C814.3 265.7 799.7 267.3 785.2 264.5C770.7 261.7 756.3 254.3 741.8 254.3C727.3 254.3 712.7 261.7 698.2 262.7C683.7 263.7 669.3 258.3 654.8 256.5C640.3 254.7 625.7 256.3 611 255.3C596.3 254.3 581.7 250.7 567.2 251.7C552.7 252.7 538.3 258.3 523.8 262.8C509.3 267.3 494.7 270.7 480 269.7C465.3 268.7 450.7 263.3 436.2 260.7C421.7 258 407.3 258 392.8 258C378.3 258 363.7 258 349 257.2C334.3 256.3 319.7 254.7 305.2 253.8C290.7 253 276.3 253 261.8 256.5C247.3 260 232.7 267 218.2 269.7C203.7 272.3 189.3 270.7 174.8 270.7C160.3 270.7 145.7 272.3 131 272.3C116.3 272.3 101.7 270.7 87.2 269.8C72.7 269 58.3 269 43.8 268.2C29.3 267.3 14.7 265.7 7.3 264.8L0 264Z" fill="#267fff"></path><path d="M0 330L7.3 331.8C14.7 333.7 29.3 337.3 43.8 338.3C58.3 339.3 72.7 337.7 87.2 337.7C101.7 337.7 116.3 339.3 131 339.3C145.7 339.3 160.3 337.7 174.8 338.7C189.3 339.7 203.7 343.3 218.2 340.7C232.7 338 247.3 329 261.8 325.3C276.3 321.7 290.7 323.3 305.2 324.2C319.7 325 334.3 325 349 325.8C363.7 326.7 378.3 328.3 392.8 328.3C407.3 328.3 421.7 326.7 436.2 328.5C450.7 330.3 465.3 335.7 480 336.5C494.7 337.3 509.3 333.7 523.8 329.2C538.3 324.7 552.7 319.3 567.2 318.5C581.7 317.7 596.3 321.3 611 323.2C625.7 325 640.3 325 654.8 326.8C669.3 328.7 683.7 332.3 698.2 331.5C712.7 330.7 727.3 325.3 741.8 326.2C756.3 327 770.7 334 785.2 336.7C799.7 339.3 814.3 337.7 829 337.7C843.7 337.7 858.3 339.3 872.8 339.3C887.3 339.3 901.7 337.7 916.2 337.7C930.7 337.7 945.3 339.3 952.7 340.2L960 341L960 301L952.7 300.2C945.3 299.3 930.7 297.7 916.2 296.8C901.7 296 887.3 296 872.8 295.2C858.3 294.3 843.7 292.7 829 292.7C814.3 292.7 799.7 294.3 785.2 291.5C770.7 288.7 756.3 281.3 741.8 281.3C727.3 281.3 712.7 288.7 698.2 289.7C683.7 290.7 669.3 285.3 654.8 283.5C640.3 281.7 625.7 283.3 611 282.3C596.3 281.3 581.7 277.7 567.2 278.7C552.7 279.7 538.3 285.3 523.8 289.8C509.3 294.3 494.7 297.7 480 296.7C465.3 295.7 450.7 290.3 436.2 287.7C421.7 285 407.3 285 392.8 285C378.3 285 363.7 285 349 284.2C334.3 283.3 319.7 281.7 305.2 280.8C290.7 280 276.3 280 261.8 283.5C247.3 287 232.7 294 218.2 296.7C203.7 299.3 189.3 297.7 174.8 297.7C160.3 297.7 145.7 299.3 131 299.3C116.3 299.3 101.7 297.7 87.2 296.8C72.7 296 58.3 296 43.8 295.2C29.3 294.3 14.7 292.7 7.3 291.8L0 291Z" fill="#3077ff"></path><path d="M0 352L7.3 353.8C14.7 355.7 29.3 359.3 43.8 360.2C58.3 361 72.7 359 87.2 359C101.7 359 116.3 361 131 361C145.7 361 160.3 359 174.8 359.8C189.3 360.7 203.7 364.3 218.2 361.7C232.7 359 247.3 350 261.8 346.5C276.3 343 290.7 345 305.2 346C319.7 347 334.3 347 349 347.8C363.7 348.7 378.3 350.3 392.8 350.3C407.3 350.3 421.7 348.7 436.2 350.5C450.7 352.3 465.3 357.7 480 358.5C494.7 359.3 509.3 355.7 523.8 351.2C538.3 346.7 552.7 341.3 567.2 340.5C581.7 339.7 596.3 343.3 611 345.2C625.7 347 640.3 347 654.8 348.7C669.3 350.3 683.7 353.7 698.2 352.7C712.7 351.7 727.3 346.3 741.8 347.3C756.3 348.3 770.7 355.7 785.2 358.3C799.7 361 814.3 359 829 359C843.7 359 858.3 361 872.8 361C887.3 361 901.7 359 916.2 359C930.7 359 945.3 361 952.7 362L960 363L960 339L952.7 338.2C945.3 337.3 930.7 335.7 916.2 335.7C901.7 335.7 887.3 337.3 872.8 337.3C858.3 337.3 843.7 335.7 829 335.7C814.3 335.7 799.7 337.3 785.2 334.7C770.7 332 756.3 325 741.8 324.2C727.3 323.3 712.7 328.7 698.2 329.5C683.7 330.3 669.3 326.7 654.8 324.8C640.3 323 625.7 323 611 321.2C596.3 319.3 581.7 315.7 567.2 316.5C552.7 317.3 538.3 322.7 523.8 327.2C509.3 331.7 494.7 335.3 480 334.5C465.3 333.7 450.7 328.3 436.2 326.5C421.7 324.7 407.3 326.3 392.8 326.3C378.3 326.3 363.7 324.7 349 323.8C334.3 323 319.7 323 305.2 322.2C290.7 321.3 276.3 319.7 261.8 323.3C247.3 327 232.7 336 218.2 338.7C203.7 341.3 189.3 337.7 174.8 336.7C160.3 335.7 145.7 337.3 131 337.3C116.3 337.3 101.7 335.7 87.2 335.7C72.7 335.7 58.3 337.3 43.8 336.3C29.3 335.3 14.7 331.7 7.3 329.8L0 328Z" fill="#3d70ff"></path><path d="M0 449L7.3 450C14.7 451 29.3 453 43.8 453C58.3 453 72.7 451 87.2 451C101.7 451 116.3 453 131 453C145.7 453 160.3 451 174.8 451.8C189.3 452.7 203.7 456.3 218.2 456.3C232.7 456.3 247.3 452.7 261.8 452.7C276.3 452.7 290.7 456.3 305.2 456.3C319.7 456.3 334.3 452.7 349 452.7C363.7 452.7 378.3 456.3 392.8 456.3C407.3 456.3 421.7 452.7 436.2 451.8C450.7 451 465.3 453 480 453C494.7 453 509.3 451 523.8 450C538.3 449 552.7 449 567.2 450C581.7 451 596.3 453 611 454C625.7 455 640.3 455 654.8 455C669.3 455 683.7 455 698.2 454C712.7 453 727.3 451 741.8 451C756.3 451 770.7 453 785.2 454.8C799.7 456.7 814.3 458.3 829 459.2C843.7 460 858.3 460 872.8 458.2C887.3 456.3 901.7 452.7 916.2 451.8C930.7 451 945.3 453 952.7 454L960 455L960 361L952.7 360C945.3 359 930.7 357 916.2 357C901.7 357 887.3 359 872.8 359C858.3 359 843.7 357 829 357C814.3 357 799.7 359 785.2 356.3C770.7 353.7 756.3 346.3 741.8 345.3C727.3 344.3 712.7 349.7 698.2 350.7C683.7 351.7 669.3 348.3 654.8 346.7C640.3 345 625.7 345 611 343.2C596.3 341.3 581.7 337.7 567.2 338.5C552.7 339.3 538.3 344.7 523.8 349.2C509.3 353.7 494.7 357.3 480 356.5C465.3 355.7 450.7 350.3 436.2 348.5C421.7 346.7 407.3 348.3 392.8 348.3C378.3 348.3 363.7 346.7 349 345.8C334.3 345 319.7 345 305.2 344C290.7 343 276.3 341 261.8 344.5C247.3 348 232.7 357 218.2 359.7C203.7 362.3 189.3 358.7 174.8 357.8C160.3 357 145.7 359 131 359C116.3 359 101.7 357 87.2 357C72.7 357 58.3 359 43.8 358.2C29.3 357.3 14.7 353.7 7.3 351.8L0 350Z" fill="#4b67ff"></path><path d="M0 487L7.3 487C14.7 487 29.3 487 43.8 486.2C58.3 485.3 72.7 483.7 87.2 484.5C101.7 485.3 116.3 488.7 131 489.5C145.7 490.3 160.3 488.7 174.8 488.7C189.3 488.7 203.7 490.3 218.2 489.5C232.7 488.7 247.3 485.3 261.8 485.3C276.3 485.3 290.7 488.7 305.2 489.5C319.7 490.3 334.3 488.7 349 488.7C363.7 488.7 378.3 490.3 392.8 489.5C407.3 488.7 421.7 485.3 436.2 484.5C450.7 483.7 465.3 485.3 480 485.3C494.7 485.3 509.3 483.7 523.8 482.8C538.3 482 552.7 482 567.2 482.8C581.7 483.7 596.3 485.3 611 486.2C625.7 487 640.3 487 654.8 487C669.3 487 683.7 487 698.2 486.2C712.7 485.3 727.3 483.7 741.8 484.5C756.3 485.3 770.7 488.7 785.2 490.3C799.7 492 814.3 492 829 492C843.7 492 858.3 492 872.8 490.3C887.3 488.7 901.7 485.3 916.2 484.5C930.7 483.7 945.3 485.3 952.7 486.2L960 487L960 453L952.7 452C945.3 451 930.7 449 916.2 449.8C901.7 450.7 887.3 454.3 872.8 456.2C858.3 458 843.7 458 829 457.2C814.3 456.3 799.7 454.7 785.2 452.8C770.7 451 756.3 449 741.8 449C727.3 449 712.7 451 698.2 452C683.7 453 669.3 453 654.8 453C640.3 453 625.7 453 611 452C596.3 451 581.7 449 567.2 448C552.7 447 538.3 447 523.8 448C509.3 449 494.7 451 480 451C465.3 451 450.7 449 436.2 449.8C421.7 450.7 407.3 454.3 392.8 454.3C378.3 454.3 363.7 450.7 349 450.7C334.3 450.7 319.7 454.3 305.2 454.3C290.7 454.3 276.3 450.7 261.8 450.7C247.3 450.7 232.7 454.3 218.2 454.3C203.7 454.3 189.3 450.7 174.8 449.8C160.3 449 145.7 451 131 451C116.3 451 101.7 449 87.2 449C72.7 449 58.3 451 43.8 451C29.3 451 14.7 449 7.3 448L0 447Z" fill="#595dff"></path><path d="M0 514L7.3 514.8C14.7 515.7 29.3 517.3 43.8 517.3C58.3 517.3 72.7 515.7 87.2 515.7C101.7 515.7 116.3 517.3 131 517.3C145.7 517.3 160.3 515.7 174.8 515.7C189.3 515.7 203.7 517.3 218.2 517.3C232.7 517.3 247.3 515.7 261.8 515.7C276.3 515.7 290.7 517.3 305.2 518.2C319.7 519 334.3 519 349 519C363.7 519 378.3 519 392.8 518.2C407.3 517.3 421.7 515.7 436.2 515.7C450.7 515.7 465.3 517.3 480 517.3C494.7 517.3 509.3 515.7 523.8 514.8C538.3 514 552.7 514 567.2 514C581.7 514 596.3 514 611 514C625.7 514 640.3 514 654.8 514C669.3 514 683.7 514 698.2 514C712.7 514 727.3 514 741.8 514.8C756.3 515.7 770.7 517.3 785.2 518.2C799.7 519 814.3 519 829 519C843.7 519 858.3 519 872.8 518.2C887.3 517.3 901.7 515.7 916.2 515.7C930.7 515.7 945.3 517.3 952.7 518.2L960 519L960 485L952.7 484.2C945.3 483.3 930.7 481.7 916.2 482.5C901.7 483.3 887.3 486.7 872.8 488.3C858.3 490 843.7 490 829 490C814.3 490 799.7 490 785.2 488.3C770.7 486.7 756.3 483.3 741.8 482.5C727.3 481.7 712.7 483.3 698.2 484.2C683.7 485 669.3 485 654.8 485C640.3 485 625.7 485 611 484.2C596.3 483.3 581.7 481.7 567.2 480.8C552.7 480 538.3 480 523.8 480.8C509.3 481.7 494.7 483.3 480 483.3C465.3 483.3 450.7 481.7 436.2 482.5C421.7 483.3 407.3 486.7 392.8 487.5C378.3 488.3 363.7 486.7 349 486.7C334.3 486.7 319.7 488.3 305.2 487.5C290.7 486.7 276.3 483.3 261.8 483.3C247.3 483.3 232.7 486.7 218.2 487.5C203.7 488.3 189.3 486.7 174.8 486.7C160.3 486.7 145.7 488.3 131 487.5C116.3 486.7 101.7 483.3 87.2 482.5C72.7 481.7 58.3 483.3 43.8 484.2C29.3 485 14.7 485 7.3 485L0 485Z" fill="#6852ff"></path><path d="M0 541L7.3 541C14.7 541 29.3 541 43.8 541C58.3 541 72.7 541 87.2 541C101.7 541 116.3 541 131 541C145.7 541 160.3 541 174.8 541C189.3 541 203.7 541 218.2 541C232.7 541 247.3 541 261.8 541C276.3 541 290.7 541 305.2 541C319.7 541 334.3 541 349 541C363.7 541 378.3 541 392.8 541C407.3 541 421.7 541 436.2 541C450.7 541 465.3 541 480 541C494.7 541 509.3 541 523.8 541C538.3 541 552.7 541 567.2 541C581.7 541 596.3 541 611 541C625.7 541 640.3 541 654.8 541C669.3 541 683.7 541 698.2 541C712.7 541 727.3 541 741.8 541C756.3 541 770.7 541 785.2 541C799.7 541 814.3 541 829 541C843.7 541 858.3 541 872.8 541C887.3 541 901.7 541 916.2 541C930.7 541 945.3 541 952.7 541L960 541L960 517L952.7 516.2C945.3 515.3 930.7 513.7 916.2 513.7C901.7 513.7 887.3 515.3 872.8 516.2C858.3 517 843.7 517 829 517C814.3 517 799.7 517 785.2 516.2C770.7 515.3 756.3 513.7 741.8 512.8C727.3 512 712.7 512 698.2 512C683.7 512 669.3 512 654.8 512C640.3 512 625.7 512 611 512C596.3 512 581.7 512 567.2 512C552.7 512 538.3 512 523.8 512.8C509.3 513.7 494.7 515.3 480 515.3C465.3 515.3 450.7 513.7 436.2 513.7C421.7 513.7 407.3 515.3 392.8 516.2C378.3 517 363.7 517 349 517C334.3 517 319.7 517 305.2 516.2C290.7 515.3 276.3 513.7 261.8 513.7C247.3 513.7 232.7 515.3 218.2 515.3C203.7 515.3 189.3 513.7 174.8 513.7C160.3 513.7 145.7 515.3 131 515.3C116.3 515.3 101.7 513.7 87.2 513.7C72.7 513.7 58.3 515.3 43.8 515.3C29.3 515.3 14.7 513.7 7.3 512.8L0 512Z" fill="#7744ff"></path></svg>